<!-- <svg width="64" height="63" viewBox="0 0 64 63" fill="none" xmlns="http://www.w3.org/2000/svg">
<path d="M9.97026 61.3037L52.4873 18.7867L52.4784 55.9279C52.4777 58.8962 54.9126 61.3311 57.8809 61.3304C60.8491 61.3297 63.2472 58.9317 63.2479 55.9634L63.2598 5.80754C63.2605 2.83929 60.8636 0.442424 57.8954 0.44313L7.73954 0.378955C6.31598 0.377691 4.95013 0.942813 3.94328 1.94966C2.93643 2.95651 2.37131 4.32236 2.37258 5.74592C2.37187 8.71417 4.76873 11.111 7.73699 11.1103L44.8782 11.1776L2.36117 53.6946C0.267668 55.7881 0.266853 59.213 2.35935 61.3055C4.45185 63.398 7.87676 63.3972 9.97026 61.3037Z" fill="#E4BB97"/>
</svg> -->

<svg width="64" height="63" viewBox="0 0 24 24" fill="none" xmlns="http://www.w3.org/2000/svg">
<path d="M7 7.0014V17.3614C7 18.1514 7.87 18.6314 8.54 18.2014L16.68 13.0214C17.3 12.6314 17.3 11.7314 16.68 11.3314L8.54 6.1614C7.87 5.7314 7 6.2114 7 7.0014Z" fill="#E4BB97"/>
</svg>
