<svg width="75" height="75" viewBox="0 0 75 75" fill="none" xmlns="http://www.w3.org/2000/svg">
<path d="M37.4999 0C16.584 0.166825 -0.165428 17.0827 0.00123301 37.7487C0.168058 58.248 16.9173 74.9974 37.4999 74.9974H37.7499C47.7494 74.9143 57.1659 70.9977 64.1656 63.8312C71.1652 56.6648 75.0817 47.2485 74.9987 37.2488C74.8319 16.7496 58.0826 0.000148723 37.5 0.000148723L37.4999 0ZM56.0826 39.9153H43.3331L52.3327 48.915C53.2494 49.8316 53.2494 51.415 52.3327 52.3316C51.8328 52.8315 51.2493 52.9984 50.5825 52.9984C49.9989 52.9984 49.3328 52.7484 48.8323 52.3316L39.9162 43.332V56.0815C39.9162 57.4149 38.8327 58.4978 37.4999 58.4978C36.1665 58.4978 35.0836 57.4143 35.0836 56.0815V43.332L26.084 52.3316C25.5841 52.8315 25.0005 52.9984 24.3337 52.9984C23.7501 52.9984 23.084 52.7484 22.5835 52.3316C21.6668 51.415 21.6668 49.8316 22.5835 48.915L31.6669 39.9153H18.9174C17.584 39.9153 16.5011 38.8318 16.5011 37.499C16.5011 36.1656 17.5846 35.0827 18.9174 35.0827H31.6669L22.6673 26.083C21.7506 25.1663 21.7506 23.583 22.6673 22.6663C23.5839 21.7497 25.1673 21.7497 26.084 22.6663L35.0836 31.666V18.9165C35.0836 17.583 36.1671 16.5002 37.4999 16.5002C38.8333 16.5002 39.9162 17.5836 39.9162 18.9165V31.666L48.9159 22.6663C49.8326 21.7497 51.416 21.7497 52.3326 22.6663C53.2493 23.583 53.2493 25.1664 52.3326 26.083L43.3329 35.0827H56.0825C57.4159 35.0827 58.4987 36.1662 58.4987 37.499C58.4993 38.8324 57.4158 39.9153 56.0825 39.9153H56.0826Z" fill="black"/>
</svg>
