<svg width="65" height="64" viewBox="0 0 65 64" fill="none" xmlns="http://www.w3.org/2000/svg">
<path d="M34.4588 61.7196C37.8808 42.6207 43.3601 37.2994 63.0219 33.9749C64.1143 33.9749 65 33.1146 65 32.0535C65 30.9925 64.1143 30.1322 63.0219 30.1322C43.3201 26.8856 37.8407 21.5633 34.4588 2.46434C34.4588 1.40331 33.5731 0.542969 32.4808 0.542969C31.3884 0.542969 30.5027 1.40331 30.5027 2.46434C27.1206 21.5633 21.6413 26.8845 1.97805 30.1717C0.885716 30.1717 0 31.032 0 32.0931C0 33.1541 0.885716 34.0144 1.97805 34.0144C21.6404 37.3383 27.1186 42.6606 30.5412 61.7591C30.6895 62.7043 31.5319 63.4 32.5166 63.3906C33.5012 63.3811 34.3286 62.6692 34.4575 61.7205L34.4588 61.7196Z" fill="#E4BB97"/>
</svg>
